<?xml version="1.0" encoding="UTF-8"?>
<svg id="Camada_1" data-name="Camada 1" xmlns="http://www.w3.org/2000/svg" viewBox="0 0 740 261">
  <defs>
    <style>
      .cls-1, .cls-2 {
        stroke-width: 0px;
        fill: #fff;
      }

      .cls-2 {
        fill: #ffffff;
        opacity: 0%;
      }
    </style>
  </defs>
  <path class="cls-2" d="m0,261C0,174,0,87,0,0c246.67,0,493.33,0,740,0,0,87,0,174,0,261-246.67,0-493.33,0-740,0ZM425.12,77.14c91.98,0,183.96,0,275.94,0,1.67,0,3.61.54,4.93-.13,2.11-1.07,5.16-2.84,5.31-4.54.17-1.99-2.06-4.48-3.79-6.2-.77-.77-2.87-.25-4.37-.25-185.63,0-371.25-.01-556.88.04-3.17,0-5.29-.53-7.39-3.52-6.63-9.45-19.36-8.65-25.95,1-.94,1.38-3.44,2.37-5.22,2.38-21.66.16-43.32.08-64.98.1-5.17,0-7.95,2.03-7.73,5.68.31,4.94,3.67,5.52,7.77,5.5,21.16-.1,42.32,0,63.49-.12,3.42-.02,5.66.64,7.76,3.84,5.58,8.52,19.42,8.8,24.71.39,2.29-3.64,4.73-4.23,8.48-4.23,92.65.08,185.29.06,277.94.07Zm-97.14,99.75c-.73,26.3,21.25,48.38,47.17,48.29,27.12-.09,48.68-21.07,48.83-47.37.15-27.07-22.02-49.07-48.59-48.64-26.32.43-47.47,21.47-47.4,47.72Zm-39.48,24.27v-44.86c-12.14,7.61-23.63,14.81-35.83,22.46,12.26,7.66,23.67,14.8,35.83,22.4Zm176.78-.78c12.12-7.62,23.52-14.78,35.56-22.35-12.25-7.66-23.67-14.79-35.56-22.22v44.57Zm-302.05-17.6c-.33,2.78-.56,4.67-.76,6.35-9.12,2.02-13.67-2.82-17.65-9.46-2.96-4.94,1.67-6.83,3.25-9.8,3.17-5.94,8.69-5.64,14.54-4.71.17,1.94.32,3.68.55,6.21,4.63-3.08,8.77-5.83,13.41-8.92-4.77-3.11-8.88-5.78-13.42-8.74-.22,2.47-.37,4.22-.59,6.64-10.59-1.72-17.17,3.67-21.86,12.84-1.43-2.02-2.54-3.43-3.48-4.94-3.6-5.76-8.83-8.46-15.54-7.92-1.72.14-3.35,1.33-5.02,2.04,1.59.78,3.14,2.15,4.77,2.25,7.46.46,13.43,4.56,15.78,11.35.19.55.26,1.25.11,1.81-1.63,6.23-8.31,11.44-14.99,11.88-1.96.13-3.91.57-5.86.86-.05.54-.1,1.08-.15,1.62,1.36.53,2.68,1.36,4.09,1.55,9.78,1.28,15.55-4.56,20.35-13.27,4.5,10.65,12.01,14.43,21.77,13.38.29,2.57.48,4.28.75,6.6,4.62-3.11,8.7-5.85,13.13-8.82-4.51-3.01-8.6-5.74-13.18-8.79Zm338.98,18.31c3.12-.15,5.69-.28,8.26-.41v-44.64h-8.26v45.05Zm-250.83-.36c0-2.16,0-3.95,0-5.73,0-10.96,0-21.92.02-32.87,0-7.64-.35-7.93-8.06-6.15v44.76h8.04Zm310.11-21.23c.21-1.23.4-2.48.65-3.7,1.54-7.64,7.8-13.66,14.9-13.8,10.31-.19,20.63-.29,30.92.04,5.33.17,9.6,2.8,12.16,8.34-2.95.24-5.4.44-7.86.64.02.43.04.87.06,1.3h12.07v-12.15c-.35,0-.71.02-1.06.02-.17,2.5-.34,5.01-.45,6.59-4.64-2.3-9.07-6.1-13.79-6.51-11.06-.96-22.26-.55-33.39-.22-9.21.27-16.89,10.5-14.2,19.44Zm2.83,7.94c3.39-.44,5.76-.75,8.14-1.06-.05-.33-.11-.66-.16-.99h-11.84v11.8c.41.02.82.03,1.23.05.17-2.43.34-4.86.62-8.84,6.15,9.57,14.56,9.67,23.23,9.38,7.15-.24,14.31-.15,21.47-.03,5.21.09,9.34-2.13,12.82-5.67,4.05-4.12,5.72-10.31,3.83-14.23-.34,1.42-.59,2.5-.86,3.56-2.51,9.74-8.64,14.54-18.63,14.56-8.49.01-16.98.07-25.46-.04-6.06-.08-10.58-2.93-14.38-8.49Z"/>
  <path class="cls-1" d="m425.12,77.13c-92.65,0-185.29,0-277.94-.07-3.75,0-6.19.6-8.48,4.23-5.3,8.41-19.13,8.14-24.71-.39-2.09-3.2-4.34-3.86-7.76-3.84-21.16.12-42.32.02-63.49.12-4.1.02-7.47-.57-7.77-5.5-.23-3.65,2.56-5.68,7.73-5.68,21.66-.02,43.32.05,64.98-.1,1.78-.01,4.28-1,5.22-2.38,6.59-9.65,19.32-10.45,25.95-1,2.1,2.99,4.22,3.52,7.39,3.52,185.63-.05,371.25-.04,556.88-.04,1.5,0,3.59-.52,4.37.25,1.73,1.73,3.97,4.22,3.79,6.2-.15,1.69-3.2,3.46-5.31,4.54-1.32.68-3.27.13-4.93.13-91.98,0-183.96,0-275.94,0Z"/>
  <path class="cls-1" d="m327.98,176.89c-.07-26.25,21.08-47.29,47.4-47.72,26.57-.44,48.74,21.57,48.59,48.64-.15,26.3-21.71,47.28-48.83,47.37-25.91.09-47.89-21.99-47.17-48.29Zm33.44-19.4v39.09h9.43v-39.09h-9.43Zm29.61,39.27c0-12.19-.14-23.78.08-35.37.07-3.9-1.82-4.32-4.89-4.22-3.07.1-5.84-.36-5.69,4.44.32,10.44.07,20.9.1,31.35,0,1.25.32,2.5.5,3.8h9.9Z"/>
  <path class="cls-1" d="m288.5,201.16c-12.16-7.6-23.57-14.74-35.83-22.4,12.2-7.65,23.69-14.85,35.83-22.46v44.86Z"/>
  <path class="cls-1" d="m465.28,200.38v-44.57c11.89,7.43,23.31,14.57,35.56,22.22-12.04,7.56-23.43,14.73-35.56,22.35Z"/>
  <path class="cls-1" d="m163.23,182.78c4.58,3.05,8.67,5.79,13.18,8.79-4.43,2.98-8.51,5.72-13.13,8.82-.26-2.33-.46-4.04-.75-6.6-9.75,1.05-17.26-2.74-21.77-13.38-4.8,8.71-10.57,14.54-20.35,13.27-1.41-.18-2.73-1.02-4.09-1.55.05-.54.1-1.08.15-1.62,1.95-.3,3.9-.73,5.86-.86,6.68-.44,13.35-5.65,14.99-11.88.15-.56.08-1.25-.11-1.81-2.36-6.79-8.32-10.89-15.78-11.35-1.63-.1-3.18-1.47-4.77-2.25,1.67-.71,3.3-1.9,5.02-2.04,6.71-.54,11.93,2.16,15.54,7.92.94,1.51,2.05,2.92,3.48,4.94,4.69-9.17,11.27-14.57,21.86-12.84.21-2.42.37-4.17.59-6.64,4.54,2.96,8.65,5.63,13.42,8.74-4.65,3.09-8.78,5.84-13.41,8.92-.22-2.52-.38-4.27-.55-6.21-5.84-.93-11.37-1.23-14.54,4.71-1.58,2.97-6.21,4.86-3.25,9.8,3.97,6.64,8.53,11.49,17.65,9.46.2-1.68.43-3.57.76-6.35Z"/>
  <path class="cls-1" d="m502.21,201.09v-45.05h8.26v44.64c-2.57.13-5.14.25-8.26.41Z"/>
  <path class="cls-1" d="m251.38,200.73h-8.04v-44.76c7.72-1.78,8.07-1.49,8.06,6.15-.01,10.96-.02,21.92-.02,32.87,0,1.78,0,3.57,0,5.73Z"/>
  <path class="cls-1" d="m561.49,179.5c-2.69-8.94,4.99-19.17,14.2-19.44,11.13-.32,22.34-.74,33.39.22,4.72.41,9.15,4.21,13.79,6.51.11-1.59.28-4.09.45-6.59.35,0,.71-.02,1.06-.02v12.15h-12.07c-.02-.43-.04-.87-.06-1.3,2.46-.2,4.92-.4,7.86-.64-2.55-5.54-6.83-8.17-12.16-8.34-10.3-.33-20.62-.24-30.92-.04-7.1.13-13.36,6.16-14.9,13.8-.25,1.23-.43,2.47-.65,3.7Z"/>
  <path class="cls-1" d="m564.32,187.45c3.79,5.56,8.32,8.41,14.38,8.49,8.49.11,16.98.06,25.46.04,9.99-.02,16.13-4.83,18.63-14.56.27-1.07.52-2.14.86-3.56,1.89,3.93.22,10.12-3.83,14.23-3.48,3.53-7.61,5.76-12.82,5.67-7.15-.12-14.32-.21-21.47.03-8.67.29-17.08.19-23.23-9.38-.28,3.98-.45,6.41-.62,8.84-.41-.02-.82-.03-1.23-.05v-11.8h11.84c.05.33.11.66.16.99-2.37.31-4.75.62-8.14,1.06Z"/>
  <path class="cls-2" d="m361.43,157.48h9.43v39.09h-9.43v-39.09Z"/>
  <path class="cls-2" d="m391.04,196.75h-9.9c-.18-1.3-.5-2.55-.5-3.8-.03-10.45.22-20.91-.1-31.35-.15-4.8,2.62-4.33,5.69-4.44,3.06-.1,4.96.31,4.89,4.22-.22,11.58-.08,23.18-.08,35.37Z"/>
</svg>